# xmcd
#
# Track frame offsets:
#	150
#	9826
#	29720
#	41610
#	59987
#	73922
#	88998
#	102384
#	116965
#	128878
#	141106
#	155286
#
# Disc length: 2207 seconds
#
# Revision: 0
# Processed by: cddbd v1.4PL0 Copyright (c) Steve Scherf et al.
# Submitted via: audiograbber 1.81.02
#
DISCID=b5089d0c
DTITLE=Gray Fox Bluegrass - It Won't Rain Always
DYEAR=2002
DGENRE=Gospel Bluegrass
TTITLE0=Shield Of Faith
TTITLE1=I've Come To Take You Home
TTITLE2=Little Mountain Church
TTITLE3=Tenderly Calling
TTITLE4=How Long Has It Been
TTITLE5=Drifting Too Far
TTITLE6=Are You Afraid To Die
TTITLE7=Will There Be Any Stars
TTITLE8=Far Side Banks Of Jordan
TTITLE9=Gospel Medley
TTITLE10=Stand Still
TTITLE11=It Won't Rain Always
EXTD=
EXTT0=
EXTT1=
EXTT2=
EXTT3=
EXTT4=
EXTT5=
EXTT6=
EXTT7=
EXTT8=
EXTT9=
EXTT10=
EXTT11=
PLAYORDER=
